#!OML:ASF F:\VICON\USERDATA\INSTALL\rory3\rory3.ASF
:FULLY-SPECIFIED
:DEGREES
36
root 0.37500840583000516 17.897071306646257 4.261274120872248 -1.0173282674454787 2.5943034603398734 1.4435918685678408
lfemur 15.965009429038702 -7.2983025447701575 -25.782380360351222
ltibia 26.69783073534691
lfoot -3.7154933287840346 -4.9120531940845416
ltoes -5.518963692681958
rfemur -27.548805768461616 3.3739881815732464 21.224299486539124
rtibia 24.148833317978593
rfoot -7.0078047115204445 -10.12929557865773
rtoes -2.8880221338838807
lowerback 9.134386778949995 -1.1179426270655348 -3.2433557038412317
upperback 0.4978765480578246 -1.8189266283646468 1.5182602877545983
thorax -4.562237719863463 -0.4705968787259893 3.254765472023872
lowerneck -16.836738124126562 -2.8894203073703504 -2.231705363972385
upperneck 21.67150660613541 -4.069062041578712 0.863471814409978
head 9.637213453680737 -1.903863138583647 0.04650333761313949
lclavicle -1.9523125277288792e-15 9.07623996758492e-16
lhumerus -21.023003629559014 -5.045473614888846 83.26770746903203
lradius 28.309307205884654
lwrist 7.436166653243147
lhand -27.131026188841915 23.702156352193906
lfingers 7.12502
lthumb -0.22889761983197376 54.63226437397546
rclavicle -1.9542085683678335e-15 9.058777627361034e-16
rhumerus -33.60540550957398 -28.24675617032262 -73.35687188687493
rradius 20.975683488239905
rwrist 11.670273922977813
rhand -17.89633169458056 22.425215157826113
rfingers 7.12502
rthumb 8.428601080512706 -7.247513322839333
37
root 0.3168257966673751 17.96473709362885 4.518209249328578 -1.305614109644221 2.018408607984806 -0.07505604543700084
lfemur 13.74759084069802 -6.635390883196564 -23.723390175958226
ltibia 37.443693617352025
lfoot -1.383066416720296 -5.6188926197694355
ltoes -5.514364482057933
rfemur -26.13972909781009 3.515515797559716 22.968046014885694
rtibia 27.102072185006502
rfoot -6.769421159434131 -7.4232305340750795
rtoes -1.9820841127133657
lowerback 9.006008478251163 -1.031302029752574 -1.3131698954041953
upperback 0.4420622746926815 -1.7479306752641848 1.8338062258715888
thorax -4.5965859720160385 -0.3743960646329817 2.824969460823819
lowerneck -16.920681829460275 -2.8167010781935744 -2.2493405049619004
upperneck 21.767024271478338 -3.868088568193655 0.7910800724675005
head 9.639415155710665 -1.8386137485000709 0.04929391381873573
lclavicle -1.95231162462584e-15 9.07624828507148e-16
lhumerus -22.08800317619932 -4.3385865007175894 83.64890401417998
lradius 28.315734352225306
lwrist 7.292975996712686
lhand -27.08769019316346 23.865895192524636
lfingers 7.12502
lthumb -0.2548875267787335 54.656446359718416
rclavicle -1.9542081676578655e-15 9.058781317858825e-16
rhumerus -34.04479668778094 -29.024346830754816 -72.67231579105912
rradius 20.532228534527363
rwrist 11.871625361671011
rhand -17.97865216877965 22.303401494378956
rfingers 7.12502
rthumb 8.444483863105505 -7.157714468676563
38
root 0.2464959821930554 18.04482295277833 4.891846250852635 -1.6851960243964856 1.6034509355690494 -1.516500563955574
lfemur 9.736086880836922 -5.4430966722320955 -21.20854033499009
ltibia 47.525965996129564
lfoot 1.059232010524929 -7.0580856711336795
ltoes -5.228363839081261
rfemur -23.469296384301114 3.6979202448308106 24.85173172618235
rtibia 29.413556409351713
rfoot -7.7880439770672005 -5.390810103724509
rtoes 0.3360117166288936
lowerback 9.007017546754483 -0.9169438798454305 -0.039067027935759
upperback 0.35327691439242337 -1.5384540320187892 2.188665147021711
thorax -4.6659588089256525 -0.3170154982487967 2.309544536542033
lowerneck -16.997468600856728 -2.7476743726455677 -2.3288273896959817
upperneck 21.79246845885059 -3.6742298111640808 0.749668776663933
head 9.63498904144336 -1.774865225585498 0.06623819987818541
lclavicle -1.95231175040756e-15 9.076247126634714e-16
lhumerus -23.585493733404235 -3.9872702708919494 84.06386804424434
lradius 28.036930976111226
lwrist 7.015447381384976
lhand -27.154643135206218 23.671603658675295
lfingers 7.12502
lthumb -0.2918816329521223 54.53199728676567
rclavicle -1.9542088601878338e-15 9.058774939728693e-16
rhumerus -33.67126119608595 -28.10153841826994 -73.37505401162909
rradius 20.382370388743173
rwrist 12.033406749039727
rhand -17.983446654098067 22.259660911298948
rfingers 7.12502
rthumb 8.43934877722576 -7.215608620125037
39
root 0.16932167478637755 18.12202434429542 5.011721365270163 -2.157965160897864 1.2531725036565113 -2.8142694450376
lfemur 4.246498734393089 -4.312243107796609 -18.194161620819916
ltibia 57.444882490384785
lfoot 3.1445021752661377 -8.691343933248733
ltoes -4.549705013801244
rfemur -20.603671243920825 4.171210918613478 26.712310274134094
rtibia 30.665953713893707
rfoot -9.133300090044093 -4.88918334646892
rtoes 3.10241882275436
lowerback 9.156129020652616 -0.6250905917578592 1.5091643255175824
upperback 0.3433376192996674 -1.11050553492759 2.541074345113923
thorax -4.715035269675137 -0.18548227111932736 1.8615496139357823
lowerneck -16.976438342499762 -2.69574709281851 -2.347770785146417
upperneck 21.700530088901623 -3.5618097377346505 0.6661061194576213
head 9.601803646142649 -1.7377660239066555 0.06505684425994003
lclavicle -1.952312224078387e-15 9.076242764174874e-16
lhumerus -25.19413618563132 -3.463716459095745 84.43500707500506
lradius 27.56341803455202
lwrist 6.49224757760658
lhand -27.142150117729432 23.684117216909392
lfingers 7.12502
lthumb -0.22675108302215785 54.652731976961874
rclavicle -1.954209406047211e-15 9.0587699124197e-16
rhumerus -32.098973062773666 -25.602059937348095 -75.31070661138897
rradius 20.465140592669623
rwrist 11.974404885956462
rhand -17.92292570674499 22.11234097904683
rfingers 7.12502
rthumb 8.467146666496227 -7.472699418496777
40
root 0.10470231523248996 18.184244015730197 5.9813457839722295 -2.590760533498309 0.9370562564139435 -3.6553054965596097
lfemur -1.7514207846113674 -2.9500435038695447 -15.792427231503499
ltibia 63.966115385745624
lfoot 4.578667037953687 -8.521158071042231
ltoes -4.412468962538092
rfemur -17.682958706021402 4.8711151379653455 28.34567152137711
rtibia 30.874386175166073
rfoot -10.094310624009637 -4.824409464259097
rtoes 4.939061933068544
lowerback 9.264457948295451 -0.2876857493237017 2.528749575815265
upperback 0.3744068366218309 -0.7248206733445155 2.6546771191661547
thorax -4.757116833088091 -0.04917211966208834 1.4134626576970546
lowerneck -16.856801982020954 -2.633287618621258 -2.3554067969169794
upperneck 21.618714575642475 -3.500540533445414 0.6971734861714118
head 9.568791013357668 -1.7224100424855502 0.0764890351159998
lclavicle -1.95231183770565e-15 9.076246322628241e-16
lhumerus -26.808793980343445 -2.6152382504934835 84.71183318366819
lradius 27.05862187768519
lwrist 6.0009375487028676
lhand -27.26245412562916 23.42827105952123
lfingers 7.12502
lthumb -0.288782449144465 54.50651687736739
rclavicle -1.9542095905922274e-15 9.058768212778983e-16
rhumerus -30.218685569286983 -23.41635574089279 -77.01998191237863
rradius 20.802471904164342
rwrist 11.327053636747847
rhand -17.85966049769265 22.113001231987393
rfingers 7.12502
rthumb 8.465393927666064 -7.647982643558284
